<svg width="58" height="58" viewBox="0 0 58 58" fill="none" xmlns="http://www.w3.org/2000/svg">
<rect width="58" height="58" fill="#E5E5E5"/>
<g filter="url(#filter0_d)">
<rect x="4" width="50" height="50" fill="white"/>
</g>
<path d="M26.7118 33.28V34H17.2438V33.28H19.3678L16.9558 28.276H9.68383L7.59583 33.28H10.4398V34H4.28383V33.28H6.69583L14.9398 13.48H15.8398L24.9838 33.28H26.7118ZM10.0078 27.52H16.5958L13.0678 20.176L10.0078 27.52ZM43.431 14.56V26.296C45.399 26.296 46.743 25.876 47.463 25.036C48.183 24.172 48.543 22.672 48.543 20.536C48.543 18.4 48.183 16.876 47.463 15.964C46.743 15.028 45.399 14.56 43.431 14.56ZM45.231 33.28V34H36.231V33.28H38.031V14.56H36.231V13.84H43.395C50.451 13.504 53.979 15.772 53.979 20.644C53.979 22.804 53.091 24.448 51.315 25.576C49.539 26.704 46.911 27.184 43.431 27.016V33.28H45.231Z" fill="black"/>
<defs>
<filter id="filter0_d" x="0" y="0" width="58" height="58" filterUnits="userSpaceOnUse" color-interpolation-filters="sRGB">
<feFlood flood-opacity="0" result="BackgroundImageFix"/>
<feColorMatrix in="SourceAlpha" type="matrix" values="0 0 0 0 0 0 0 0 0 0 0 0 0 0 0 0 0 0 127 0" result="hardAlpha"/>
<feOffset dy="4"/>
<feGaussianBlur stdDeviation="2"/>
<feComposite in2="hardAlpha" operator="out"/>
<feColorMatrix type="matrix" values="0 0 0 0 0 0 0 0 0 0 0 0 0 0 0 0 0 0 0.25 0"/>
<feBlend mode="normal" in2="BackgroundImageFix" result="effect1_dropShadow"/>
<feBlend mode="normal" in="SourceGraphic" in2="effect1_dropShadow" result="shape"/>
</filter>
</defs>
</svg>
